<svg fill="#F31A84" xmlns="http://www.w3.org/2000/svg" xmlns:xlink="http://www.w3.org/1999/xlink" version="1.1" x="0px" y="0px" viewBox="0 0 100 100" enable-background="new 0 0 100 100" xml:space="preserve"><path d="M50,1.2C23.1,1.2,1.2,23,1.2,50S23.1,98.8,50,98.8S98.8,77,98.8,50S76.9,1.2,50,1.2z M74.4,53.5H53.5v20.9  c0,2-1.5,3.5-3.5,3.5c-2,0-3.5-1.5-3.5-3.5V53.5H25.6c-2,0-3.5-1.5-3.5-3.5s1.5-3.5,3.5-3.5h20.9V25.6c0-2,1.5-3.5,3.5-3.5  c2,0,3.5,1.5,3.5,3.5v20.9h20.9c2,0,3.5,1.5,3.5,3.5S76.3,53.5,74.4,53.5z"></path></svg>
